<?xml version="1.0" encoding="utf-8"?>
<!-- Generator: Adobe Illustrator 16.0.0, SVG Export Plug-In . SVG Version: 6.00 Build 0)  -->
<!DOCTYPE svg PUBLIC "-//W3C//DTD SVG 1.1//EN" "http://www.w3.org/Graphics/SVG/1.1/DTD/svg11.dtd">
<svg version="1.1" id="Layer_1" xmlns="http://www.w3.org/2000/svg" xmlns:xlink="http://www.w3.org/1999/xlink" x="0px" y="0px"
	 width="86px" height="30px" viewBox="0 0 86 30" enable-background="new 0 0 86 30" xml:space="preserve">
<title>logo</title>
<desc>Created with Sketch.</desc>
<g id="Page-1">
	<g id="logo">
		<path id="Shape_1_" fill="#FFDA1A" d="M39.88,28.4c21.479,0,38.92-5.801,38.92-13c-0.026-7.2-17.399-13-38.9-13
			C18.399,2.4,1,8.2,1,15.4c-0.016,7.2,17.4,13,38.9,13"/>
		<path id="Shape_2_" fill="#005E9D" d="M83.057,5.2c1.139,0,2.043-0.9,2.043-2.1C85.096,1.9,84.2,1,83.1,1C81.904,1,81,1.9,81,3.1
			c0.006,1.2,0.9,2.1,2.1,2.1H83.057z M80.499,3.1c0-1.5,1.201-2.5,2.601-2.5c1.33,0,2.5,1,2.5,2.5c0.002,1.4-1.199,2.5-2.5,2.5
			C81.672,5.6,80.5,4.5,80.499,3.1L80.499,3.1z M83.05,2.9c0.374,0,0.75,0,0.75-0.5C83.756,2.1,83.4,2,83.1,2h-0.576v0.9H83.05
			L83.05,2.9z M82.523,4.5h-0.438V1.6h1.104c0.687,0,1.011,0.3,1.011,0.8c0.015,0.6-0.3,0.8-0.7,0.8l0.788,1.3h-0.493l-0.766-1.2
			h-0.506V4.5L82.523,4.5z"/>
		<path id="Shape_3_" fill="#005E9D" d="M62.316,16.4c0,0-0.717-1.8-0.816-1.9c-0.055-0.2-0.1-0.6-0.1-0.6h0.022
			c0,0-0.022,0.4-0.123,0.6c-0.012,0.1-0.8,1.9-0.8,1.9H62.316L62.316,16.4z M63.334,20.4c0,0,0.366-0.4,0.166-0.801l-0.467-1.3
			h-3.102l-0.507,1.3C59.313,20,59.6,20.4,59.6,20.4h-6.238c0,0,0.339-0.301,0.539-0.801l3.365-8.8c0.226-0.6-0.166-0.9-0.166-0.9
			h9.998c0,0-0.397,0.3-0.197,0.9l3.55,8.8C70.73,20.1,71.1,20.4,71.1,20.4H63.334L63.334,20.4z"/>
		<path id="Shape_4_" fill="#005E9D" d="M11.158,20.4c0.4-0.2,0.342-0.9,0.342-1l0.031-8.8c0-0.5-0.331-0.7-0.331-0.7h7.233
			c0,0-0.333,0.2-0.333,0.7l0.026,8.8c0,0.1-0.026,0.8,0.374,1H11.158"/>
		<path id="Shape_5_" fill="#005E9D" d="M28.189,14.1l2.422-3.4c0.348-0.5-0.011-0.8-0.011-0.8c-0.036,0,7.1,0,7.1,0
			c-0.035,0-0.4,0.2-0.7,0.6l-2.625,3.7l3.328,5.3c0.288,0.4,0.497,0.6,0.697,0.7c0.167,0.1,0.3,0.2,0.3,0.2h-8.34
			c0,0,0.24-0.2,0.04-0.7L28.188,16.1V19.4c0,0.1-0.088,0.8,0.312,1h-7.084c0.399-0.2,0.384-0.9,0.384-1l-0.011-8.8
			c0-0.5-0.289-0.7-0.289-0.7h6.996c0,0-0.296,0.2-0.296,0.7L28.189,14.1"/>
		<path id="Shape_6_" fill="#005E9D" d="M52.137,20.4l0.002-3.7c0,0-0.438,0.5-1.139,0.5h-4.395v-0.9h3.401
			c0.188,0,0.793,0.101,0.894,0.3l0.029-3.2c-0.154,0.2-0.729,0.3-0.93,0.3h-3.396v-0.9h4.434c0.652,0,1.063,0.5,1.063,0.5
			l0.037-3.4H40.111c0,0,0.289,0.2,0.289,0.7l0.018,8.8c0,0.1-0.018,0.8-0.418,1H52.137"/>
	</g>
</g>
</svg>
