<?xml version="1.0" encoding="utf-8"?>
<!-- Generator: Adobe Illustrator 22.0.1, SVG Export Plug-In . SVG Version: 6.00 Build 0)  -->
<svg version="1.1" id="Layer_1" xmlns="http://www.w3.org/2000/svg" xmlns:xlink="http://www.w3.org/1999/xlink" x="0px" y="0px"
	 viewBox="0 0 86 50" style="enable-background:new 0 0 86 50;" xml:space="preserve">
<style type="text/css">
	.st0{fill:#005E9D;}
	.st1{fill:#FFDA1A;}
</style>
<title>logo</title>
<desc>Created with Sketch.</desc>
<g id="Page-1">
	<g id="logo">
		<polygon id="Shape" class="st0" points="0,0 86,0 86,50 0,50 		"/>
		<path id="Shape_1_" class="st1" d="M39.9,38.4c21.5,0,38.9-5.8,38.9-13c0-7.2-17.4-13-38.9-13S1,18.2,1,25.4
			C1,32.6,18.4,38.4,39.9,38.4"/>
		<path id="Shape_2_" class="st1" d="M83.1,15.2c1.1,0,2-0.9,2-2.1c0-1.2-0.9-2.1-2-2.1c-1.2,0-2.1,0.9-2.1,2.1
			C81,14.3,81.9,15.2,83.1,15.2L83.1,15.2z M80.5,13.1c0-1.5,1.2-2.5,2.6-2.5c1.3,0,2.5,1,2.5,2.5c0,1.4-1.2,2.5-2.5,2.5
			C81.7,15.6,80.5,14.5,80.5,13.1L80.5,13.1z M83.1,12.9c0.4,0,0.8,0,0.8-0.5c0-0.3-0.4-0.4-0.7-0.4h-0.6v0.9H83.1L83.1,12.9z
			 M82.5,14.5h-0.4v-2.9h1.1c0.7,0,1,0.3,1,0.8c0,0.6-0.3,0.8-0.7,0.8l0.8,1.3h-0.5L83,13.3h-0.5L82.5,14.5L82.5,14.5z"/>
		<path id="Shape_3_" class="st0" d="M62.3,26.4c0,0-0.7-1.8-0.8-1.9c-0.1-0.2-0.1-0.6-0.1-0.6h0c0,0,0,0.4-0.1,0.6
			c0,0.1-0.8,1.9-0.8,1.9H62.3L62.3,26.4z M63.3,30.4c0,0,0.4-0.4,0.2-0.8L63,28.3h-3.1l-0.5,1.3c-0.1,0.4,0.2,0.8,0.2,0.8h-6.2
			c0,0,0.3-0.3,0.5-0.8l3.4-8.8c0.2-0.6-0.2-0.9-0.2-0.9h10c0,0-0.4,0.3-0.2,0.9l3.6,8.8c0.3,0.5,0.6,0.8,0.6,0.8H63.3L63.3,30.4z"
			/>
		<path id="Shape_4_" class="st0" d="M11.2,30.4c0.4-0.2,0.3-0.9,0.3-1l0-8.8c0-0.5-0.3-0.7-0.3-0.7h7.2c0,0-0.3,0.2-0.3,0.7l0,8.8
			c0,0.1,0,0.8,0.4,1H11.2"/>
		<path id="Shape_5_" class="st0" d="M28.2,24.1l2.4-3.4c0.3-0.5,0-0.8,0-0.8c0,0,7.1,0,7.1,0c0,0-0.4,0.2-0.7,0.6l-2.6,3.7l3.3,5.3
			c0.3,0.4,0.5,0.6,0.7,0.7c0.2,0.1,0.3,0.2,0.3,0.2h-8.3c0,0,0.2-0.2,0-0.7l-2.2-3.6v3.3c0,0.1-0.1,0.8,0.3,1h-7.1
			c0.4-0.2,0.4-0.9,0.4-1l0-8.8c0-0.5-0.3-0.7-0.3-0.7h7c0,0-0.3,0.2-0.3,0.7L28.2,24.1"/>
		<path id="Shape_6_" class="st0" d="M52.1,30.4l0-3.7c0,0-0.4,0.5-1.1,0.5h-4.4v-0.9H50c0.2,0,0.8,0.1,0.9,0.3l0-3.2
			c-0.2,0.2-0.7,0.3-0.9,0.3h-3.4v-0.9H51c0.7,0,1.1,0.5,1.1,0.5l0-3.4h-12c0,0,0.3,0.2,0.3,0.7l0,8.8c0,0.1,0,0.8-0.4,1H52.1"/>
	</g>
</g>
</svg>
